<svg width="251" height="165" viewBox="0 0 251 165" fill="none" xmlns="http://www.w3.org/2000/svg">
<path d="M173.916 134V55.3672H195.562V134H173.916Z" fill="url(#paint0_linear_7_21)"/>
<path d="M236.405 134.605C231.382 134.605 227.495 133.963 224.745 132.68C222.032 131.397 220.143 129.6 219.08 127.29C218.053 124.98 217.54 122.303 217.54 119.26V88.295H208.3V77.13H218.035L222.105 59.97H233.545V77.075H246.195V88.295H233.545L233.655 118.6C233.655 119.993 233.82 121.038 234.15 121.735C234.517 122.395 235.067 122.835 235.8 123.055C236.57 123.238 237.542 123.33 238.715 123.33H246.36V133.23C245.59 133.56 244.435 133.872 242.895 134.165C241.355 134.458 239.192 134.605 236.405 134.605Z" fill="url(#paint1_linear_7_21)"/>
<path d="M9.75 135V43.5H33.8125L68.375 90.5625C69.0417 91.5208 70.125 93.4583 71.625 96.375C73.1667 99.25 74.8542 102.688 76.6875 106.688C76.1875 102.896 75.8125 99.5208 75.5625 96.5625C75.3542 93.6042 75.25 90.9792 75.25 88.6875V43.5H99.1875V135H75.25L40.6875 87.75C39.9792 86.7917 38.8542 84.875 37.3125 82C35.8125 79.0833 34.1667 75.6667 32.375 71.75C32.875 75.5833 33.2292 78.9792 33.4375 81.9375C33.6875 84.8958 33.8125 87.5208 33.8125 89.8125V135H9.75Z" fill="url(#paint2_linear_7_21)"/>
<path d="M107.75 134V42.5H132.688V112.625H163.688V134H107.75Z" fill="url(#paint3_linear_7_21)"/>
<path d="M207.4 42.3V56.3L184.95 39.7L162.5 56.6V42.5L185 26.3L207.4 42.3Z" fill="#5BEC62"/>
<path d="M207.4 42.3V56.3L184.95 39.7L162.5 56.6V42.5L185 26.3L207.4 42.3Z" fill="#60FF68"/>
<path d="M207.4 23.8547V37.8547L184.95 21.2547L162.5 38.1547V24.0547L185 7.85469L207.4 23.8547Z" fill="#5BEC62"/>
<defs>
<linearGradient id="paint0_linear_7_21" x1="165" y1="52.1067" x2="205" y2="135.893" gradientUnits="userSpaceOnUse">
<stop offset="0.274038" stop-color="#60FF68"/>
<stop offset="0.778846" stop-color="#5BC460"/>
</linearGradient>
<linearGradient id="paint1_linear_7_21" x1="251" y1="84.0342" x2="205" y2="104.966" gradientUnits="userSpaceOnUse">
<stop offset="1" stop-color="#46FF4F"/>
</linearGradient>
<linearGradient id="paint2_linear_7_21" x1="155.353" y1="119.369" x2="13.1471" y2="67.6314" gradientUnits="userSpaceOnUse">
<stop offset="0.307692" stop-color="#2D5B73"/>
<stop offset="0.927885" stop-color="#223666"/>
</linearGradient>
<linearGradient id="paint3_linear_7_21" x1="167" y1="83.5402" x2="98" y2="92.4598" gradientUnits="userSpaceOnUse">
<stop offset="0.25" stop-color="#4B9677"/>
<stop offset="0.75" stop-color="#2D5B73"/>
</linearGradient>
</defs>
</svg>
